<mxfile host="65bd71144e" scale="6" border="10">
    <diagram id="6Sz4PvvYsgXTKHyWFFaw" name="ページ1">
        <mxGraphModel dx="1216" dy="619" grid="1" gridSize="10" guides="1" tooltips="1" connect="1" arrows="1" fold="1" page="1" pageScale="1" pageWidth="827" pageHeight="1169" background="#ffffff" math="0" shadow="0">
            <root>
                <mxCell id="0"/>
                <mxCell id="1" parent="0"/>
                <mxCell id="17" value="" style="rounded=0;whiteSpace=wrap;html=1;fontFamily=Architects Daughter;fontSize=24;fontColor=#1A1A1A;fillColor=#FFFFFF;strokeColor=none;container=0;movable=1;resizable=1;rotatable=1;deletable=1;editable=1;connectable=1;fontSource=https%3A%2F%2Ffonts.googleapis.com%2Fcss%3Ffamily%3DArchitects%2BDaughter;" parent="1" vertex="1">
                    <mxGeometry x="20" y="100" width="750" height="490" as="geometry"/>
                </mxCell>
                <mxCell id="25" value="" style="rounded=0;whiteSpace=wrap;html=1;fontFamily=Architects Daughter;fontSize=24;fontColor=#1A1A1A;fillColor=#FFFFFF;strokeColor=#1A1A1A;container=0;fontSource=https%3A%2F%2Ffonts.googleapis.com%2Fcss%3Ffamily%3DArchitects%2BDaughter;" parent="1" vertex="1">
                    <mxGeometry x="60" y="120" width="240" height="430" as="geometry"/>
                </mxCell>
                <mxCell id="7" value="" style="rounded=0;whiteSpace=wrap;html=1;fontFamily=Architects Daughter;fontSize=24;fontColor=#1A1A1A;fillColor=#FFFFFF;strokeColor=#1A1A1A;container=0;fontSource=https%3A%2F%2Ffonts.googleapis.com%2Fcss%3Ffamily%3DArchitects%2BDaughter;" parent="1" vertex="1">
                    <mxGeometry x="400" y="120" width="280" height="430" as="geometry"/>
                </mxCell>
                <mxCell id="2" value="" style="dashed=0;outlineConnect=0;html=1;align=center;labelPosition=center;verticalLabelPosition=bottom;verticalAlign=top;shape=mxgraph.weblogos.github;fontFamily=Architects Daughter;fontSource=https%3A%2F%2Ffonts.googleapis.com%2Fcss%3Ffamily%3DArchitects%2BDaughter;fontColor=#1A1A1A;" parent="1" vertex="1">
                    <mxGeometry x="60" y="120" width="60" height="60" as="geometry"/>
                </mxCell>
                <mxCell id="3" value="" style="shape=image;verticalLabelPosition=bottom;labelBackgroundColor=default;verticalAlign=top;aspect=fixed;imageAspect=0;image=data:image/png,iVBORw0KGgoAAAANSUhEUgAAAOEAAADhCAMAAAAJbSJIAAAAkFBMVEX///8giP95uP8Agf8Af/8Agv+ix/8ahv8Aff8vkP8RhP89kv9ztf9wtP9Gl//7/f/o8v/y+P/t9f9ZoP/2+v/X5//l8P+91//F3P8iiv+Nu/9Snf/Q4/+bw/99sv+61f+vz/9zrf9np/+qzP9+s/9rqf/d6/+HuP+Wxv+BvP/J3/+ZyP+hzP+JwP+u0//C2P/J1hgOAAAWt0lEQVR4nO1dCZPiuA6GdoKJuQlXCPfZzZvu/v//7hEgsnzGDs10pmpVu1VbOyHjL5ZlSZY+12ou0pvMlqu4GyVJEnXT7bxxGTr97h+R2TylAQkprdN6/fovpYwRkuwa498e2U9Ib7oLCKMZNFkoC9jh8tsDfFLGK0p04BDIZDn47VGWl0saMBu+u7Bg2//tkZaTcRoUw8sx/oN2Z3h0xXfDSJa/PWBfaRDmji+TsP5P2Zxhl2hAXPeIMCQkZKHWtAbb3x62u6wV+0lDEkbpatnYfE83jeU2TYg6yWFy+u2RO8ohkOEF6fwyEh8aTs9REEoPks2vDNhTeqk4bhp094Yd7zRPpNlu/gMGZxAJ2sfI0ap6s24gPE8Of2ugZWUQ4UlhwWpS9ItFLCg1Wf2NYZaXkQAwSJ1MxyzBek2qbVJbCCCla9efLbF3UGlFTdGaIumo+Ae5nPDqDaprbg5on/e1ijH6bTB7zfielg0yGcR7kHP+a0qqGWxMEMCwRPS+RxC7Pz+8HxBkZUgp92vT5C+Y//TofkCWfCGRRclX8FkMqpfCQTraVNbgaDy7FG79VznDV6qgnsago0owe0nDgBCSNHrFb4FNg+xfM87SMoMppLH4J8M4387D+rToNSP4TpS+aqglhZsZKm70ExztBnFRPmYBXyqs1r4/gwUUiPM0SoTwiIaNgjcdch+VMg+f6PXSzXHIOrqVI3nSsu8kPcg/Fn6MvylctwLRZPabdVlocLa+a8N3nVcO2VOO+Xdn0uiXuowbS6wuHSxp8v3KMXvJAOI7IlmSWJ8zDY6WTP46n0S6e+2wPQQUi8nRa4ubGHEaw435dYnpe/2ewEwFshXJEYaNpZg9pKRrdHL2+dcIq7Lrj3I7o7paOULWqE1SMa9GA5N3DUrPYsMTf1umuZKq9h0hvCozE+1OmBg89B3YmmI/76/IKh94oKwbAWFtcJRyxcFWCwE+GanIWUYOQxMPiAivTngiWRymy1b18l2UVcNzG4AlVReWjPAaIDWl1RhrMha5iyR7SL8kC9ApdSNXEdZO0rkUDVTvbJ7rffLSkbvKJlc8om7jGoTZ2aLoB5CuPI3gyAeVOOO3fXAtwtpwJ1ocxqR9FBIGZfMhPyvbfNGk6p/pEV6tZV2wODQRbSoEwqQwZv4bkj6GwzRnKiaEtd5KOOYPJSMV5f+/EhFUfhijoKhZENZq4whbHGlvz/1AjXn+BYF50HiRFoTieYwUKeVeDavEKQ0g3Kh/ZkVY6/OKG0lNYW1X4qgNpkFjFewIr7FgoodyftjnaoSIeThHNA5YEcILeHwiwkOlEOaWxl9L0b5YaS1tlbOlom8jKcCOVcnSpDkKTSBg2y1aeLcIxOQo7LH2vNxfEptGue748lwlpt/9iuR+qe64yIRwTa1e2yB3davhtTW8Pe++WEJTp/KJ6qlanjcPddRYVotw2ZSip0hOu63zGa5G9NSHD65uiBqEi0iue1MtFGR+opeO3FV6dXNwoSAcbKWTDG0WIw8tqrHhc9OuWYgyQiWhqK2bGuZaUZFMFD9+UUswRISnrpwUXmmziQ3Ii1SkXmEMn1yJ5jDC3lmqbSctAwA4jWSvHrqrUKOaIoSzRFRQnYW5C2Rp6PHFA3eWA6ipnKMGhHMp+UQtR/pzUNJK7PeZwBGwkozi+iYqaMjMg++Bv1qhk3w48QskH2QnAoMJPFiOXJZQq1CJ0OkuYE3lDawRagAaLcxNevCc/Ll+Uwa8UuFi+AM+gQUZQkgw09Yrh+wrvKhE8rOWcvNMsLMfXfP6OF1W5PdkYixlSsXmhKSovgIcpIr4pCBQbyKf5fdafCkWldLUssxGNacQTyKVt/1D8zaNlAbdwsLaE39NxaYQbdN1JgcE/XNCgoDuiku/e7wKrkqG9CF8sWlKmAeniUvRAV+0ymeqgFxQCXPJOpgj6AFllQjuJVlxqxlsSr2APPmClwsqJS3TZbfjAMPKBBWinHDbi2+yeoQ2ThpVpFJIkTXKwZDYayWdcPTIqtkyk8kczSJlHgVNDey/VnCj4LIVziK2jvHdKcU/a1Ym7tWKAJExl21jdBDyN2W3mr8mRwyRkqjIu+wtxSOMZtUBKr3qJNlYTM5kTsT8RlBtFb3LUkoahuFuql2Q/X1KpAw/q7KR4XIJpewMJc3ufIY908FpvUoC+TnWqkxhd4H0W0p6hjJCaCs+bs+H7S6OWBAqfQrUSowx+d4v5+f5srG5/JjLOrhsGreX7mcunXWCyOntO4Q6o4wxquX9uBrejelt42XKgowxhF3/CUmQHDdPT/Zwc0zwO1m89DtCWERW9iQVfXA0bJ6TeUJkpiJKSLp5wrPrbbpEWUqMJHOvqWyEDgxKMOLIYGJmsUwPAj+h55IT2T8ww+cPg9jH1PXmTP5OJnwtw645llgzxJ+FwbzEPI7ONvIqGsQ+yjpY2pm+bq9kQdewB/a2RURMrO6drtowvU4gjH5h0TRWFB6/7foFVqb01IU6EDEFO69pHMUO7FWs7rcrD/dxQHTf7bq02XFmHOBcTZdrh+NDTLSou7FXefNWjGZzaPHK2KIy60xaO6t5jjVMU1S70QTOmrpRuyEN7yT+SYY9nEbEq8N8PzsVKFdXmvWrw8CidBd3E6aovWtSpyFpRaZESTfepRFTWKtC704PKCtyCqhqIhMTC5LVOnf6BuPGjogGrOk0i3sB4HVL3TXGuXs0yZxIAWSoqct3Q+hUQBJjgGG4ktW5NxX5/FzIUNYYIA3SqaxF44NgLnyzYYCwHhYH/iucDAnOWj90ges6lLIxzfMIICVdrbUcCC1LntwcHGHxiQtmgQnNZx0btB7l0j9FRmjo1LxSTnj9+9HkcISFjBd9BNB6WIVDmCKdQg3JYcuWyjsje+uVeG+ghHjBftrlgymykmi92j84sjJhgSFAGuTVOocQ6rqH8N+AcvuFKQ1+0mFtcxtxhS42IN98Fn30FCG0D7zHB+OyCXAyFLmxCAs/hHdpLUZW16M7ECOUyUEEWfLefifXiRPEEeNbJ5z2xqn6gRcfeHDIiAjNesppMRwXwYSfzBonkU+hI8UWt0vukyggrBOjiYQCHOqwb95kDxQM1LBjDGBhuXJrDuA7u1cTiAjNznsEg3HWj27RaHg9kzM1ExRMFJhF/BPJszXQDYxhBdjUY7BiJIG6Izh8Nuk1UIlY96lNREJO2Ax1bE3XczAZYZ1ot6W5C2HEMMmUKIAX8EnU7tBQ32E1M9vgFtjleDhzhWvHh4LwGrpqviiEkczshfUfAR30gAMZir5aE/5q25p6nChxPQZ74KqmKsLrEFfyN4cCb0tZYh8a+vIpgXJNfZdUbhhttExwZAY8cXlVgtF+uSC8hrVzUcu/La39OcA63wDz/5fXeOotCcyG2V3bqpVYMwWzK0IxvRSSdI+CB7B6ocnnRQC5MYJFE+h+AbwkxqWNDj3h045gIW48EbbOYgKGhkE93p6X+0ajsY9lBbQBDEEnoUSCzbPXCLKHak6FPCcXfOTJdTK3X67N1oAwUpNolN64zK8C/gxfht+HM7cffZQ1ohTmecTdzlAR+LMmvOY0PzR4vhwDRK6wb5MnQniNT4pyllDCOewGjAWtBxY8g5ShM4bE8i4QUOpzM2QhZOgwQOyI5CvG1ZhihGJpiRZhvmTufjVNbl9cnEF8iNIt+mR1ZIbuOkQfsacAEO99+eJ2LVUWENZ6h6Z1TLlFy3c6mgwsM4jLbi0IHx4PhGc3iKYZRP1zjs63iDBLiNhUNecfgKDgOovCDEo1RQbSNBHhY7NA7HkbHEHXJRYZ8CNKIry6k13zGVBuoXkxII0ik4rWHOfwsZ4WfNbC1AyQk9KURnj9u7bMcAtG7gzuNan9DKDsDUe6x2R5rKcB3hvMACGOK7cOc+lNV1F24QXN5fFQ3sLd050pKDOIGq/qVBH4Xe4CHXSfTSU6AloHx3SUHmEm/VljtYvTbibgcuZvPalzrM4gd1vqra4i4MwDE1msnoRpmJzA+3Ak+jcjxJInaTgBrQJRM4PcnVXp1BB8Tp+iQNQAhD3WlSnWDSH3vMHDkiDqAHKF0jLzAoMfT51IEHUAeTu5Y0bRDaGuPfaEl6JGRWv8c+uXDGwl6K8WIOoAosZYxyDfDSE3iuixE2pJ0c0g6mHVKhSMFcdBOFuujeITzUis4ojwDKNBCYAJOOTaGQQf2UAFP9aG1QBRD/Bij6o14ogQtmNB4SZ3R4vVtQD7RdkrnlXChmh3h9jU52Egl+5M3eiI0NCrOUkIpSTSVwiBa2eyepDeEgkDtlefihkyqLwr1plW3BUhjEZyJRrbrSFEP0G+NzDUbE34E0JG4nI4zg1mBBKQttMQUVwR8sND4pjG40TbxjwMuK3OHhjP2zi3DbgiRGcMbikgYDi35Ht5w1LoxOgDtkklRjaLM0J8AuxwcsFPwmz+I489XIpvBjxlYFJ8jTgjrJ15e1erMFU5Q+1klmKFEzr0LLSNPR6nhR4lbu4IR3wOaatgFqe8HsPOKLXin62IxmCA7lrxIQRwR4jnhSbWtbhEVQX2OLWHclX2orUxChq9ijE8EAq3Deg9jpsMhAuUCszSwrElC/eeh14XpPkgFFJnpGUwkQKTbXGjDR46Ne1EC8yw5skH4IVwIIQT2srkvXhXm8PX3go/SPaqFVtIxad+PQFeCHE4Uc8K9yKhUHMw24qFvkUlMncRqwFDtpphCONlJOIjng0KfghrY6X4ksbz/fp7um4cuqFUu+8GUCY/yDpAuqvGevq93s9jqpRf+tIbeSK8hvZKs8DjmlYlBele7apU5WYvvb5Tfak+EP1RhLVhy61g2XwBgUYOjncUh13/vhxvhPeT9WKAfjxEU6c+l1L39pZAWJtSNe0nCUk9u0qGxVdp6xnWCqUMwtpo1bSqaqmxrO0NFyxYleNuKoXwGrxujU0zlNRLUn826kZdZcHW28Tkby3LhNhfJprDDRqStDy7S2+d6vpcGEmW5fvkSyO8yuIcBdctEIpGQhKk+ydb9vuNNOvNy9953Ryb0fmpBtZnEF5lOFtuu0lST5IkPu/HP0K50Bvvz3Fye2l3u5w929H4JMJ/QP5D+O/Lfwj/ffkP4b8v/yH89+VphJNZxvAwXza+Fj/GGjHqjy+z6dd0djk9T8ix96wwEuS0TO/Jhts/hESr9dMjGi3+vHU6nfZdrv/xPnvO1YUaKm965/48UsrDWMYa8cxwFu9XTG+itDsf0yfUA8qmPa80vMRNE2sEmZecyMFXp/OmlXbnf2XDQ94q4pWGPFlzDsztNFCS3pcyeyLGksoKlTIelzb2VvYq1Kx2wauRNZNF24LvjvHL9513gXXoTFewSAoTUcZbME3S+59BPwWMH6VUNT+Gde48XWoIEDQSJh7DmbwVTOBDOt6qUUO1QJZ+Hyw7TY0k1VE8UHe9HztM4APiH3+E/PZUpxRuKmWfGAlIlMZxN2kGoQTTlQFtJgHMtsG3z/f/fX50lL2j/e6NEC75dVJTmTUiOvM8ymlzZGVYIy4iwE77zwXeORh/fYgg25/eEKEewqFEZYdnkDW38jnQaN0SWSMcFHUhAOx8LuTVMvkjYGz/zxnaQ8BvK66Fw3XKNDiYWCPwQ4XmZtIR8GkLN0ZfwkO+uwYnoC+6UBxzdIQtYxHJHhNjFDn0PWECjVPe/0DT2PE9QoR7EgoKjQTWCNt8C6wRBcdF73zk7Q/bF8bT2PZ0U1ErhzW5zAuYaFCgKGhLsVeGoEXYKVhf6FFvg8pLLGwhFOKlKN7pUOeg7Z09PoPFO90JfQ1PPeWlQBad4pQDTvvcDhTVVlP/BQhdLCR2DIqfFoRv4+ZCoNKsETQ0OktDPmSnXW4Kz5ttkl74vQDGTZp3yfizRhi/CJ/CjpvtQHbJ6XkuZ1Qhr1fBPZ9CR0OGeqMMT/S8p2TEf+F74oYK6Job3QOcNcL5gBdqCU0e7wxmxNkT4y6sr/M2RiGRrkzEjTVClELWiE+YEHd6Pm5OfVM3mDRNU0jhxBohSwFrxLDMfFzyeW97h4oCU5lyzSivkfcI3QtYI0BJvdaUv2aDxChuoCQSBuXCGqFKAWvEO+yFPgmPP+0yv7qLGPuRCLXG61gjTvO0FS8FfV4c0u4RsezaWSNgqF7hEGz7nRJJGyl+D4M4Z47QsEYcmteQnoWodHmQBlnTKaHwFWCLITVVBvlQ2167Nzh67TIVGnIOhoaEtHareSNWJgPKCSHKGIBPAFcMAGuEWK8/OI0Xi8salqFfIjS3wO1SycWzJhF6I8KWlyGqXW4+WkBR6JEHmsAagV310Xvnfi4Bdt9vjLAQSySlrjK180TnDtgoszyUdm8FTPcg97b7seRWkA2dWtDRuuEAlczvh+cQ89/756RuMoxttZX5SLN9gKaja6wLKpi16Ge9FYswm/bH24CHhO8+X0pm1NPsw47o+WW4TBMzhXK+sWUOwO2gIzvYuVNJXMHcbwXLWFnyzuZ8/aJOsw8ZoO9cLOATlUWYBUqmtH3edp0hvJnVzJbcJzabrlubQHbmmluWHCFvnOmpyW3P3BmPEssjrI2Wib4OMtfSbBu4rclMN+9mJLvC7tY+krk/zceemL5yDktr6V1mO4WkuM5ZI269kWS734VAZJVRY1I632cAgTomj0hQiCgnuL3XITh7/m6bJIP1NmnemCM4TwVo283Fo7cF+zgs7GX/Te8bC2Sf8i0Sczp9yhDbfuP6etKWijK4NM7HbqulsEYMOVVG3qNz4SyI+WbBaROw2zL7yDaMD1BXzzgod2fbm+ewiQLMRZw1on6zRpS0YHzrx32KTfDO4dRHur++1+shr80zcQZTX+akzSj8tJ+PZhkFAenicLG/SoKAxXy+DsqHwQIOppf7BacAHmGzg0D0JKQGB32len4o/C87awRET15GEVwa7yDfLjrWiEJZ2FkjeATsEwd9lPouxQI3fPvcvcZZI7QrDfSt7eFDQ+K7XGhhFqCj8CCaLmSN4NbUvVcEVPtnl2ENpRv186EToMsy8R9AhOhu+NFpo+tPXIWzRrgy4hazRvBkm3MQDAnI9o/fkjbkfA0/xxoBKufqgXGX74ctaSaImdppBfCDArNx4udlbnajz58vF+Db34668R2+H79YxcbgyCfR5eRi8Pb2winEVB40KrR9326sEROfQ88eD7x+equ4C2aNSIpqGvgxiL1OEeU0ijLfA1ys4Dt4N5kiPa3bWSMwv4T1nbgUo2M1jxP85E/vhbmUYo0oGAw6nH/rvJu1HwfOr9HRmwisEV3DNDZwQtLyIR4iDN2U/p7gsLlE3ZezDHFpHg12Gowb4fbBomqaTP7g3FTnQ4NxIhWflusHdhORSpAGrQa+AWs0OzDhXMDlWg7hcD7D2P4SbtXqz6TSvc5rbwwdiycblAX19NDYfK83y2OLyKwRjlzGIsS3dqf9+Wd6GY8Xs6/3N6X8snRJu6NM6lKakT4YHphSQ6u/g0Anagn0vdVCU/rdfv3V4MPIlTXCo2D/S4Gol/bHK3wZRQrvd7zrr1fTemGl/n0JvsAb1cq06LrJEqwRAyWNqk7gm2/VZXkZFXCRhP6XdF6n0V6v3+58/UgvvKucjsZLPimp+940+ZDpm3Ee250/f/1a6f5cof+5Lb/mE6wRtcWnrjOo3Xl7prXrCfneJtdt4r5L0BtrBOsun9yu+tPP637IizKvm8bH16scbRcZzpaHuBslSZQez5vxj/hTvcnl689nFgx+vG+mY/Ps/R9AvEodrd5wLQAAAABJRU5ErkJggg==;fontFamily=Architects Daughter;fontSource=https%3A%2F%2Ffonts.googleapis.com%2Fcss%3Ffamily%3DArchitects%2BDaughter;fontColor=#1A1A1A;" parent="1" vertex="1">
                    <mxGeometry x="140" y="211" width="70" height="70" as="geometry"/>
                </mxCell>
                <mxCell id="12" value="GitHubActions" style="text;html=1;strokeColor=none;fillColor=none;align=center;verticalAlign=middle;whiteSpace=wrap;rounded=0;fontFamily=Architects Daughter;fontSize=24;fontColor=#1A1A1A;fontStyle=1;fontSource=https%3A%2F%2Ffonts.googleapis.com%2Fcss%3Ffamily%3DArchitects%2BDaughter;" parent="1" vertex="1">
                    <mxGeometry x="90" y="281" width="180" height="45" as="geometry"/>
                </mxCell>
                <mxCell id="10" value="" style="shape=image;verticalLabelPosition=bottom;labelBackgroundColor=default;verticalAlign=top;aspect=fixed;imageAspect=0;image=data:image/svg+xml,PHN2ZyB4bWxuczp4bGluaz0iaHR0cDovL3d3dy53My5vcmcvMTk5OS94bGluayIgeG1sbnM9Imh0dHA6Ly93d3cudzMub3JnLzIwMDAvc3ZnIiB2ZXJzaW9uPSIxLjEiIHZpZXdCb3g9IjAgMCA0MCA0MCIgaGVpZ2h0PSI0MHB4IiB3aWR0aD0iNDBweCI+CiAgICA8dGl0bGU+SWNvbi1BcmNoaXRlY3R1cmUtR3JvdXAvMzIvQVdTLUNsb3VkLWxvZ29fMzI8L3RpdGxlPgogICAgPGcgZmlsbC1ydWxlPSJldmVub2RkIiBmaWxsPSJub25lIiBzdHJva2Utd2lkdGg9IjEiIHN0cm9rZT0ibm9uZSIgaWQ9Ikljb24tQXJjaGl0ZWN0dXJlLUdyb3VwLzMyL0FXUy1DbG91ZC1sb2dvXzMyIj4KICAgICAgICA8cmVjdCBoZWlnaHQ9IjQwIiB3aWR0aD0iNDAiIHk9IjAiIHg9IjAiIGZpbGw9IiMyNDJGM0UiIGlkPSJSZWN0YW5nbGUiLz4KICAgICAgICA8cGF0aCBmaWxsPSIjRkZGRkZGIiBpZD0iRmlsbC0xIiBkPSJNMzIuNjk4MiwyMy45MDA4IEMzMy4wNTkyLDI0LjM2OTggMzIuMjk4MiwyNi4yOTk4IDMxLjk1NzIsMjcuMTYzOCBDMzEuODUzMiwyNy40MjU4IDMyLjA3NTIsMjcuNTI4OCAzMi4zMDcyLDI3LjMzMTggQzMzLjgyMDIsMjYuMDQ3OCAzNC4yMTIyLDIzLjM1NjggMzMuOTAxMiwyMi45Njg4IEMzMy41OTQyLDIyLjU4MjggMzAuOTUwMiwyMi4yNTE4IDI5LjMzODIsMjMuNDAwOCBDMjkuMDg5MiwyMy41Nzc4IDI5LjEzMjIsMjMuODIxOCAyOS40MDcyLDIzLjc4OTggQzMwLjMxNTIsMjMuNjc3OCAzMi4zMzgyLDIzLjQzMjggMzIuNjk4MiwyMy45MDA4IEwzMi42OTgyLDIzLjkwMDggWiBNMzEuODU2MiwyNS45MDk4IEMzMi4zNzQyLDI1LjUzMTggMzEuOTMwMiwyNC45Njg4IDMxLjQwMjIsMjUuMTg5OCBDMjcuODg5MiwyNi42NTM4IDI0LjA3NTIsMjcuMzYyOCAyMC42MDIyLDI3LjM2MjggQzE1LjQ1OTIsMjcuMzYyOCAxMC40NzUyLDI1Ljk3MzggNi40NDYyLDIzLjY2NzggQzYuMDk0MiwyMy40NjU4IDUuODMzMiwyMy44MjI4IDYuMTI3MiwyNC4wODE4IEM5Ljg2MDIsMjcuMzk3OCAxNC43OTYyLDI5LjM5MDggMjAuMjc0MiwyOS4zOTA4IEMyNC4xODQyLDI5LjM5MDggMjguNzI1MiwyOC4xODI4IDMxLjg1NjIsMjUuOTA5OCBMMzEuODU2MiwyNS45MDk4IFogTTI5LjcxMjIsMjAuNjk0OCBDMjkuMjE0MiwyMC42OTQ4IDI4LjcyNzIsMjAuNjQxOCAyOC4yNTMyLDIwLjUzMzggQzI3Ljc3NzIsMjAuNDI0OCAyNy40MTMyLDIwLjMwMTggMjcuMTYwMiwyMC4xNjA4IEMyNy4wMDUyLDIwLjA3NjggMjYuOTA4MiwxOS45ODg4IDI2Ljg2OTIsMTkuOTAyOCBDMjYuODMxMiwxOS44MTQ4IDI2LjgxMTIsMTkuNzI4OCAyNi44MTEyLDE5LjY0MjggTDI2LjgxMTIsMTkuMTczOCBDMjYuODExMiwxOC45Nzk4IDI2Ljg4NDIsMTguODgwOCAyNy4wMjcyLDE4Ljg4MDggQzI3LjA4MjIsMTguODgwOCAyNy4xNDAyLDE4Ljg5MzggMjcuMjAwMiwxOC45MTM4IEMyNy4yNjEyLDE4LjkzNjggMjcuMzQxMiwxOC45Njg4IDI3LjQ0MTIsMTkuMDExOCBDMjcuNzYxMiwxOS4xNTI4IDI4LjEwODIsMTkuMjU5OCAyOC40ODUyLDE5LjMzNTggQzI4Ljg2MTIsMTkuNDEwOCAyOS4yMzYyLDE5LjQ0ODggMjkuNjExMiwxOS40NDg4IEMzMC4yMDgyLDE5LjQ0ODggMzAuNjY5MiwxOS4zNDY4IDMwLjk5NTIsMTkuMTQwOCBDMzEuMzIyMiwxOC45MzY4IDMxLjQ4NDIsMTguNjQ1OCAzMS40ODQyLDE4LjI2NzggQzMxLjQ4NDIsMTguMDA3OCAzMS4zOTkyLDE3Ljc5MjggMzEuMjI3MiwxNy42MTg4IEMzMS4wNTYyLDE3LjQ0NDggMzAuNzM4MiwxNy4yODU4IDMwLjI3NTIsMTcuMTMzOCBMMjguOTAwMiwxNi43MTI4IEMyOC4yMDMyLDE2LjQ5NjggMjcuNjk4MiwxNi4xODM4IDI3LjM4MzIsMTUuNzc0OCBDMjcuMDY4MiwxNS4zNjI4IDI2LjkxMTIsMTQuOTE1OCAyNi45MTEyLDE0LjQyNzggQzI2LjkxMTIsMTQuMDQwOCAyNi45OTYyLDEzLjY5ODggMjcuMTY5MiwxMy40MDA4IEMyNy4zMzkyLDEzLjEwMzggMjcuNTY0MiwxMi44NTA4IDI3Ljg0NTIsMTIuNjM5OCBDMjguMTMwMiwxMi40Mjk4IDI4LjQ1OTIsMTIuMjcxOCAyOC44MzQyLDEyLjE2MTggQzI5LjIwODIsMTIuMDU0OCAyOS42MDYyLDExLjk5OTggMzAuMDI2MiwxMS45OTk4IEMzMC4yMzYyLDExLjk5OTggMzAuNDQ5MiwxMi4wMTM4IDMwLjY2NjIsMTIuMDQwOCBDMzAuODgxMiwxMi4wNjY4IDMxLjA4NTIsMTIuMTAyOCAzMS4yNzgyLDEyLjE0NTggQzMxLjQ3MTIsMTIuMTkwOCAzMS42NTEyLDEyLjIzODggMzEuODE2MiwxMi4yOTE4IEMzMS45ODIyLDEyLjM0NjggMzIuMTE0MiwxMi40MDA4IDMyLjIxNTIsMTIuNDUzOCBDMzIuMzQ2MiwxMi41Mjg4IDMyLjQzOTIsMTIuNjA0OCAzMi40OTYyLDEyLjY4MDggQzMyLjU1MTIsMTIuNzU1OCAzMi41NzkyLDEyLjg1NzggMzIuNTc5MiwxMi45ODg4IEwzMi41NzkyLDEzLjQyNDggQzMyLjU3OTIsMTMuNjE5OCAzMi41MDcyLDEzLjcxNTggMzIuMzYyMiwxMy43MTU4IEMzMi4yODUyLDEzLjcxNTggMzIuMTY1MiwxMy42Nzk4IDMxLjk5ODIsMTMuNjAzOCBDMzEuNDU4MiwxMy4zNjQ4IDMwLjg0ODIsMTMuMjQ3OCAzMC4xNzcyLDEzLjI0NzggQzI5LjYzNTIsMTMuMjQ3OCAyOS4yMTQyLDEzLjMzMzggMjguOTE2MiwxMy41MDU4IEMyOC42MTcyLDEzLjY3OTggMjguNDY4MiwxMy45NTQ4IDI4LjQ2ODIsMTQuMzMyOCBDMjguNDY4MiwxNC41OTA4IDI4LjU2MjIsMTQuODA5OCAyOC43NTEyLDE0Ljk4NzggQzI4LjkzOTIsMTUuMTY1OCAyOS4yODYyLDE1LjMzNTggMjkuNzk1MiwxNS40OTg4IEwzMS4xMzcyLDE1LjkyMDggQzMxLjgyMjIsMTYuMTM0OCAzMi4zMTEyLDE2LjQzMjggMzIuNjAzMiwxNi44MDg4IEMzMi44OTcyLDE3LjE4NzggMzMuMDQ0MiwxNy42MTg4IDMzLjA0NDIsMTguMTAzOCBDMzMuMDQ0MiwxOC41MDQ4IDMyLjk2MTIsMTguODYzOCAzMi43OTQyLDE5LjE4MTggQzMyLjYyODIsMTkuNTAwOCAzMi4zOTkyLDE5Ljc3MTggMzIuMTA1MiwxOS45OTg4IEMzMS44MTMyLDIwLjIyNTggMzEuNDYzMiwyMC4zOTc4IDMxLjA1NDIsMjAuNTE2OCBDMzAuNjQ0MiwyMC42MzY4IDMwLjE5NzIsMjAuNjk0OCAyOS43MTIyLDIwLjY5NDggTDI5LjcxMjIsMjAuNjk0OCBaIE0xNy41NDcyLDIwLjQ1MDggQzE3LjM4MTIsMjAuNDUwOCAxNy4yNjAyLDIwLjQyMzggMTcuMTgyMiwyMC4zNjM4IEMxNy4xMDQyLDIwLjMwMjggMTcuMDM4MiwyMC4xODI4IDE2Ljk4MzIsMTkuOTk4OCBMMTQuNzYxMiwxMi44NDE4IEMxNC43MDgyLDEyLjY1NzggMTQuNjc5MiwxMi41MzQ4IDE0LjY3OTIsMTIuNDcwOCBDMTQuNjc5MiwxMi4zMTk4IDE0Ljc1NzIsMTIuMjQzOCAxNC45MTIyLDEyLjI0MzggTDE1LjgzOTIsMTIuMjQzOCBDMTYuMDE2MiwxMi4yNDM4IDE2LjE0MDIsMTIuMjczOCAxNi4yMTMyLDEyLjMzMzggQzE2LjI4NDIsMTIuMzkxOCAxNi4zNDcyLDEyLjUxMTggMTYuNDAyMiwxMi42OTc4IEwxNy45OTMyLDE4LjgxNzggTDE5LjQ3MDIsMTIuNjk3OCBDMTkuNTE0MiwxMi41MTE4IDE5LjU3NDIsMTIuMzkxOCAxOS42NTEyLDEyLjMzMzggQzE5LjcyODIsMTIuMjczOCAxOS44NTUyLDEyLjI0MzggMjAuMDMxMiwxMi4yNDM4IEwyMC43OTYyLDEyLjI0MzggQzIwLjk3MTIsMTIuMjQzOCAyMS4wOTgyLDEyLjI3MzggMjEuMTc2MiwxMi4zMzM4IEMyMS4yNTMyLDEyLjM5MTggMjEuMzE0MiwxMi41MTE4IDIxLjM1ODIsMTIuNjk3OCBMMjIuODUxMiwxOC44OTg4IEwyNC40OTEyLDEyLjY5NzggQzI0LjU0NjIsMTIuNTExOCAyNC42MDkyLDEyLjM5MTggMjQuNjgxMiwxMi4zMzM4IEMyNC43NTQyLDEyLjI3MzggMjQuODc3MiwxMi4yNDM4IDI1LjA1NDIsMTIuMjQzOCBMMjUuOTMyMiwxMi4yNDM4IEMyNi4wODgyLDEyLjI0MzggMjYuMTY1MiwxMi4zMTk4IDI2LjE2NTIsMTIuNDcwOCBDMjYuMTY1MiwxMi41MTE4IDI2LjE1ODIsMTIuNTYxOCAyNi4xNDkyLDEyLjYxNDggQzI2LjEzNjIsMTIuNjcwOCAyNi4xMTYyLDEyLjc0NTggMjYuMDgxMiwxMi44NDE4IEwyMy43OTUyLDE5Ljk5ODggQzIzLjc0MDIsMjAuMTgyOCAyMy42NzMyLDIwLjMwMjggMjMuNTk1MiwyMC4zNjM4IEMyMy41MTgyLDIwLjQyMzggMjMuMzk2MiwyMC40NTA4IDIzLjIzMTIsMjAuNDUwOCBMMjIuNDE4MiwyMC40NTA4IEMyMi4yNDIyLDIwLjQ1MDggMjIuMTE1MiwyMC40MjA4IDIyLjAzODIsMjAuMzU2OCBDMjEuOTYxMiwyMC4yOTE4IDIxLjkwMDIsMjAuMTY1OCAyMS44NTYyLDE5Ljk4MzggTDIwLjM4MDIsMTQuMDIzOCBMMTguOTIzMiwxOS45ODM4IEMxOC44NzkyLDIwLjE2NTggMTguODE3MiwyMC4yOTE4IDE4Ljc0MDIsMjAuMzU2OCBDMTguNjYyMiwyMC40MjA4IDE4LjUzNjIsMjAuNDUwOCAxOC4zNTkyLDIwLjQ1MDggTDE3LjU0NzIsMjAuNDUwOCBaIE05LjkzOTIsMTkuNDQ4OCBDMTAuMjUwMiwxOS40NDg4IDEwLjU3NTIsMTkuMzkxOCAxMC45MTgyLDE5LjI3ODggQzExLjI2MDIsMTkuMTY0OCAxMS41NTgyLDE4Ljk2ODggMTEuODEyMiwxOC42ODY4IEMxMS45NjgyLDE4LjUxNDggMTIuMDc0MiwxOC4zMTc4IDEyLjEzNjIsMTguMDk1OCBDMTIuMTk2MiwxNy44NzU4IDEyLjIyNTIsMTcuNjA4OCAxMi4yMjUyLDE3LjI5NDggTDEyLjIyNTIsMTYuOTA2OCBDMTEuOTUxMiwxNi44NDE4IDExLjY2MTIsMTYuNzkwOCAxMS4zNTYyLDE2Ljc1MjggQzExLjA1MjIsMTYuNzE1OCAxMC43NTcyLDE2LjY5NTggMTAuNDY5MiwxNi42OTU4IEM5Ljg0MDIsMTYuNjk1OCA5LjM2OTIsMTYuODE5OCA5LjA2MTIsMTcuMDY4OCBDOC43NTIyLDE3LjMxNjggOC41OTYyLDE3LjY3MTggOC41OTYyLDE4LjEzODggQzguNTk2MiwxOC41Njk4IDguNzEzMiwxOC44OTQ4IDguOTQ1MiwxOS4xMTY4IEM5LjE3NzIsMTkuMzM4OCA5LjUwOTIsMTkuNDQ4OCA5LjkzOTIsMTkuNDQ4OCBMOS45MzkyLDE5LjQ0ODggWiBNMTMuNzg1MiwxOC4wNDA4IEMxMy43ODUyLDE4LjM4NTggMTMuODIwMiwxOC42NTk4IDEzLjg5MjIsMTguODY1OCBDMTMuOTY1MiwxOS4wNzE4IDE0LjA2NzIsMTkuMjkzOCAxNC4xOTkyLDE5LjUyOTggQzE0LjI0MzIsMTkuNjA1OCAxNC4yNjUyLDE5LjY3NTggMTQuMjY1MiwxOS43Mzg4IEMxNC4yNjUyLDE5LjgzNzggMTQuMjA0MiwxOS45Mjk4IDE0LjA4MzIsMjAuMDE0OCBMMTMuNDg2MiwyMC40MDQ4IEMxMy4zOTgyLDIwLjQ1NzggMTMuMzE1MiwyMC40ODU4IDEzLjIzODIsMjAuNDg1OCBDMTMuMTM3MiwyMC40ODU4IDEzLjA0NDIsMjAuNDQyOCAxMi45NTYyLDIwLjM1NjggQzEyLjgyMjIsMjAuMjI1OCAxMi43MTAyLDIwLjA4MzggMTIuNjE3MiwxOS45MjY4IEMxMi41MjEyLDE5Ljc3MDggMTIuNDI1MiwxOS41ODc4IDEyLjMyNjIsMTkuMzgyOCBDMTEuNTg1MiwyMC4yMzU4IDEwLjY1ODIsMjAuNjYyOCA5LjU0MjIsMjAuNjYyOCBDOC43NDYyLDIwLjY2MjggOC4xMTYyLDIwLjQ0MjggNy42NTEyLDE5Ljk5ODggQzcuMTg4MiwxOS41NTY4IDYuOTU2MiwxOC45NjI4IDYuOTU2MiwxOC4yMTg4IEM2Ljk1NjIsMTcuNDMxOCA3LjI0MzIsMTYuNzk1OCA3LjgxOTIsMTYuMzE1OCBDOC4zOTIyLDE1LjgzNTggOS4xNjcyLDE1LjU5NDggMTAuMTM4MiwxNS41OTQ4IEMxMC40NTkyLDE1LjU5NDggMTAuNzkzMiwxNS42MTk4IDExLjE0MTIsMTUuNjY3OCBDMTEuNDg4MiwxNS43MTU4IDExLjg1MTIsMTUuNzg0OCAxMi4yMjUyLDE1Ljg3MDggTDEyLjIyNTIsMTUuMTkxOCBDMTIuMjI1MiwxNC40ODk4IDEyLjA3ODIsMTMuOTk1OCAxMS43NzkyLDEzLjcwODggQzExLjQ4MTIsMTMuNDIyOCAxMC45NjgyLDEzLjI4MDggMTAuMjM5MiwxMy4yODA4IEM5LjkwNjIsMTMuMjgwOCA5LjU2NjIsMTMuMzE5OCA5LjIxODIsMTMuNDAwOCBDOC44NzEyLDEzLjQ4MTggOC41MzAyLDEzLjU4NjggOC4xOTkyLDEzLjcxNTggQzguMDQ0MiwxMy43ODA4IDcuOTMzMiwxMy44MjE4IDcuODY4MiwxMy44Mzc4IEM3LjgwMjIsMTMuODUzOCA3Ljc1MjIsMTMuODYxOCA3LjcxOTIsMTMuODYxOCBDNy41ODcyLDEzLjg2MTggNy41MTkyLDEzLjc2NTggNy41MTkyLDEzLjU2OTggTDcuNTE5MiwxMy4xMTc4IEM3LjUxOTIsMTIuOTY1OCA3LjU0MzIsMTIuODU3OCA3LjU4NzIsMTIuNzk0OCBDNy42MzEyLDEyLjcyODggNy43MTkyLDEyLjY2MzggNy44NTIyLDEyLjU5OTggQzguMTgzMiwxMi40MzY4IDguNTgxMiwxMi4yOTY4IDkuMDQ0MiwxMi4xNzg4IEM5LjUwOTIsMTIuMDU5OCAxMC4wMDAyLDExLjk5OTggMTAuNTIwMiwxMS45OTk4IEMxMS42NDYyLDExLjk5OTggMTIuNDcyMiwxMi4yNTI4IDEyLjk5NzIsMTIuNzUyOCBDMTMuNTIxMiwxMy4yNTQ4IDEzLjc4NTIsMTQuMDEyOCAxMy43ODUyLDE1LjAyNzggTDEzLjc4NTIsMTguMDQwOCBaIi8+CiAgICA8L2c+Cjwvc3ZnPg==;fontFamily=Architects Daughter;fontSource=https%3A%2F%2Ffonts.googleapis.com%2Fcss%3Ffamily%3DArchitects%2BDaughter;fontColor=#1A1A1A;" parent="1" vertex="1">
                    <mxGeometry x="400" y="120" width="60" height="60" as="geometry"/>
                </mxCell>
                <mxCell id="13" value="" style="sketch=0;points=[[0,0,0],[0.25,0,0],[0.5,0,0],[0.75,0,0],[1,0,0],[0,1,0],[0.25,1,0],[0.5,1,0],[0.75,1,0],[1,1,0],[0,0.25,0],[0,0.5,0],[0,0.75,0],[1,0.25,0],[1,0.5,0],[1,0.75,0]];outlineConnect=0;fontColor=#1A1A1A;gradientColor=#F54749;gradientDirection=north;fillColor=#C7131F;strokeColor=#ffffff;dashed=0;verticalLabelPosition=bottom;verticalAlign=top;align=center;html=1;fontSize=12;fontStyle=0;aspect=fixed;shape=mxgraph.aws4.resourceIcon;resIcon=mxgraph.aws4.identity_and_access_management;fontFamily=Architects Daughter;fontSource=https%3A%2F%2Ffonts.googleapis.com%2Fcss%3Ffamily%3DArchitects%2BDaughter;" parent="1" vertex="1">
                    <mxGeometry x="502.5" y="176" width="75" height="75" as="geometry"/>
                </mxCell>
                <mxCell id="14" value="" style="sketch=0;points=[[0,0,0],[0.25,0,0],[0.5,0,0],[0.75,0,0],[1,0,0],[0,1,0],[0.25,1,0],[0.5,1,0],[0.75,1,0],[1,1,0],[0,0.25,0],[0,0.5,0],[0,0.75,0],[1,0.25,0],[1,0.5,0],[1,0.75,0]];outlineConnect=0;fontColor=#1A1A1A;gradientColor=#60A337;gradientDirection=north;fillColor=#277116;strokeColor=#ffffff;dashed=0;verticalLabelPosition=bottom;verticalAlign=top;align=center;html=1;fontSize=12;fontStyle=0;aspect=fixed;shape=mxgraph.aws4.resourceIcon;resIcon=mxgraph.aws4.s3;fontFamily=Architects Daughter;fontSource=https%3A%2F%2Ffonts.googleapis.com%2Fcss%3Ffamily%3DArchitects%2BDaughter;" parent="1" vertex="1">
                    <mxGeometry x="502.5" y="306" width="75" height="75" as="geometry"/>
                </mxCell>
                <mxCell id="15" value="" style="sketch=0;points=[[0,0,0],[0.25,0,0],[0.5,0,0],[0.75,0,0],[1,0,0],[0,1,0],[0.25,1,0],[0.5,1,0],[0.75,1,0],[1,1,0],[0,0.25,0],[0,0.5,0],[0,0.75,0],[1,0.25,0],[1,0.5,0],[1,0.75,0]];outlineConnect=0;fontColor=#1A1A1A;gradientColor=#945DF2;gradientDirection=north;fillColor=#5A30B5;strokeColor=#ffffff;dashed=0;verticalLabelPosition=bottom;verticalAlign=top;align=center;html=1;fontSize=12;fontStyle=0;aspect=fixed;shape=mxgraph.aws4.resourceIcon;resIcon=mxgraph.aws4.cloudfront;fontFamily=Architects Daughter;fontSource=https%3A%2F%2Ffonts.googleapis.com%2Fcss%3Ffamily%3DArchitects%2BDaughter;" parent="1" vertex="1">
                    <mxGeometry x="502.5" y="430" width="75" height="75" as="geometry"/>
                </mxCell>
                <mxCell id="18" value="" style="endArrow=classic;html=1;fontFamily=Architects Daughter;fontSize=24;fontColor=#1A1A1A;strokeColor=#1A1A1A;strokeWidth=4;fontSource=https%3A%2F%2Ffonts.googleapis.com%2Fcss%3Ffamily%3DArchitects%2BDaughter;" parent="1" edge="1">
                    <mxGeometry width="50" height="50" relative="1" as="geometry">
                        <mxPoint x="264" y="235" as="sourcePoint"/>
                        <mxPoint x="464" y="235" as="targetPoint"/>
                    </mxGeometry>
                </mxCell>
                <mxCell id="19" value="&lt;span style=&quot;&quot;&gt;&lt;font style=&quot;font-size: 20px;&quot;&gt;( 1 ) Assume role&lt;/font&gt;&lt;/span&gt;" style="edgeLabel;html=1;align=center;verticalAlign=bottom;resizable=0;points=[];fontSize=24;fontFamily=Architects Daughter;fontColor=#1A1A1A;fontStyle=1;labelBackgroundColor=none;fontSource=https%3A%2F%2Ffonts.googleapis.com%2Fcss%3Ffamily%3DArchitects%2BDaughter;" parent="18" vertex="1" connectable="0">
                    <mxGeometry x="0.12" y="1" relative="1" as="geometry">
                        <mxPoint as="offset"/>
                    </mxGeometry>
                </mxCell>
                <mxCell id="20" value="" style="endArrow=classic;html=1;fontFamily=Architects Daughter;fontSize=24;fontColor=#1A1A1A;strokeColor=#1A1A1A;strokeWidth=4;fontSource=https%3A%2F%2Ffonts.googleapis.com%2Fcss%3Ffamily%3DArchitects%2BDaughter;" parent="1" edge="1">
                    <mxGeometry width="50" height="50" relative="1" as="geometry">
                        <mxPoint x="264" y="329" as="sourcePoint"/>
                        <mxPoint x="464" y="329" as="targetPoint"/>
                    </mxGeometry>
                </mxCell>
                <mxCell id="21" value="&lt;span style=&quot;&quot;&gt;&lt;font style=&quot;font-size: 20px;&quot;&gt;( 2 ) Upload assets&lt;/font&gt;&lt;/span&gt;" style="edgeLabel;html=1;align=center;verticalAlign=bottom;resizable=0;points=[];fontSize=24;fontFamily=Architects Daughter;fontColor=#1A1A1A;fontStyle=1;labelBackgroundColor=none;fontSource=https%3A%2F%2Ffonts.googleapis.com%2Fcss%3Ffamily%3DArchitects%2BDaughter;" parent="20" vertex="1" connectable="0">
                    <mxGeometry x="0.12" y="1" relative="1" as="geometry">
                        <mxPoint as="offset"/>
                    </mxGeometry>
                </mxCell>
                <mxCell id="22" value="AWS IAM" style="text;html=1;strokeColor=none;fillColor=none;align=center;verticalAlign=middle;whiteSpace=wrap;rounded=0;fontFamily=Architects Daughter;fontSize=18;fontColor=#1A1A1A;fontStyle=1;fontSource=https%3A%2F%2Ffonts.googleapis.com%2Fcss%3Ffamily%3DArchitects%2BDaughter;" parent="1" vertex="1">
                    <mxGeometry x="485" y="251" width="110" height="35" as="geometry"/>
                </mxCell>
                <mxCell id="23" value="Amazon S3" style="text;html=1;strokeColor=none;fillColor=none;align=center;verticalAlign=middle;whiteSpace=wrap;rounded=0;fontFamily=Architects Daughter;fontSize=18;fontColor=#1A1A1A;fontStyle=1;fontSource=https%3A%2F%2Ffonts.googleapis.com%2Fcss%3Ffamily%3DArchitects%2BDaughter;" parent="1" vertex="1">
                    <mxGeometry x="485" y="386" width="110" height="35" as="geometry"/>
                </mxCell>
                <mxCell id="24" value="Amazon CloudFront" style="text;html=1;strokeColor=none;fillColor=none;align=center;verticalAlign=middle;whiteSpace=wrap;rounded=0;fontFamily=Architects Daughter;fontSize=18;fontColor=#1A1A1A;fontStyle=1;fontSource=https%3A%2F%2Ffonts.googleapis.com%2Fcss%3Ffamily%3DArchitects%2BDaughter;" parent="1" vertex="1">
                    <mxGeometry x="450" y="505" width="180" height="35" as="geometry"/>
                </mxCell>
            </root>
        </mxGraphModel>
    </diagram>
</mxfile>